<?xml version="1.0" encoding="utf-8"?>
<!-- Generator: Adobe Illustrator 23.0.1, SVG Export Plug-In . SVG Version: 6.00 Build 0)  -->
<svg version="1.1" id="Layer_1" xmlns="http://www.w3.org/2000/svg" xmlns:xlink="http://www.w3.org/1999/xlink" x="0px" y="0px"
	 viewBox="0 0 143 50" style="enable-background:new 0 0 143 50;" xml:space="preserve">
<style type="text/css">
	.st0{fill:#FFFFFF;}
</style>
<title>logo</title>
<desc>Created with Sketch.</desc>
<g id="Symbols">
	<g transform="translate(-150.000000, -395.000000)">
		<g id="logo" transform="translate(150.000000, 395.000000)">
			<path id="Combined-Shape" class="st0" d="M22.7,42.5c0,0-17.7,6.6-18.4,6.9c-0.7,0.3-1.7,0.2-1.7,0.2c-1.9,0-3.1-1.9-2.4-3.6
				L19.7,1.5c0.9-2.1,3.8-2.1,4.7,0L43.8,46c0.7,1.7-0.5,3.6-2.4,3.6c-1,0-2-0.6-2.4-1.6L24.4,13.5c-0.9-2.1-3.8-2.1-4.7,0l-10,24.1
				c-0.9,2.1,1.2,4.2,3.3,3.4l7.8-3.4c1-0.4,2.1-0.1,2.8,0.6l0.1,0.1C24.9,39.7,24.4,41.9,22.7,42.5z M55.3,22.2
				c-1.5,0.3-2.2,1.2-2.2,2c0,1.1,0.8,1.9,2.3,1.9c1.4,0,2.3-0.9,2.3-2.1v-2.3L55.3,22.2z M60,24c0,2.6-2.2,4.4-4.6,4.4
				c-2.3,0-4.6-1.4-4.6-4.1c0-2.5,2.1-3.8,4.3-4.2l2.6-0.6v-0.7c0-1.3-0.7-2.1-2.3-2.1c-1.7,0-1.9,1.4-2.9,1.4
				c-0.6,0-1.1-0.5-1.1-1.1c0-0.4,0.2-0.7,0.4-0.9c0.9-1.1,2.3-1.6,3.7-1.6c2.8,0,4.5,1.8,4.5,4.4V24z M72.9,16.1l-4.3,11.3
				c-0.2,0.6-0.6,0.9-1.1,0.9c-0.4,0-0.8-0.3-1.1-0.9L62,16.1C62,16,62,15.8,62,15.7c0-0.7,0.6-1.1,1.2-1.1c0.4,0,0.8,0.2,1,0.7
				l3.3,8.7l3.3-8.7c0.2-0.5,0.6-0.7,1-0.7c0.6,0,1.2,0.4,1.2,1.1C72.9,15.8,72.9,16,72.9,16.1z M75.1,15.7c0-0.8,0.6-1.1,1.1-1.1
				c0.6,0,1.1,0.4,1.1,1.1V27c0,0.8-0.6,1.1-1.1,1.1c-0.6,0-1.1-0.4-1.1-1.1V15.7z M76.3,9.4c0.8,0,1.5,0.7,1.5,1.5
				c0,0.8-0.7,1.5-1.5,1.5c-0.8,0-1.5-0.7-1.5-1.5C74.8,10.1,75.5,9.4,76.3,9.4z M90.5,16.1l-4.3,11.3c-0.2,0.6-0.6,0.9-1.1,0.9
				c-0.4,0-0.8-0.3-1.1-0.9l-4.3-11.3c-0.1-0.2-0.1-0.3-0.1-0.5c0-0.7,0.6-1.1,1.2-1.1c0.4,0,0.8,0.2,1,0.7l3.3,8.7l3.3-8.7
				c0.2-0.5,0.6-0.7,1-0.7c0.6,0,1.2,0.4,1.2,1.1C90.6,15.8,90.6,16,90.5,16.1z M96.7,22.2c-1.5,0.3-2.2,1.2-2.2,2
				c0,1.1,0.8,1.9,2.3,1.9c1.4,0,2.3-0.9,2.3-2.1v-2.3L96.7,22.2z M101.4,24c0,2.6-2.2,4.4-4.6,4.4c-2.3,0-4.6-1.4-4.6-4.1
				c0-2.5,2.1-3.8,4.3-4.2l2.6-0.6v-0.7c0-1.3-0.7-2.1-2.3-2.1c-1.7,0-1.9,1.4-2.9,1.4c-0.6,0-1.1-0.5-1.1-1.1
				c0-0.4,0.2-0.7,0.4-0.9c0.9-1.1,2.3-1.6,3.7-1.6c2.8,0,4.5,1.8,4.5,4.4V24z M54.9,49.6c-1.3,0-3.1-0.6-3.9-1.8
				c-0.2-0.2-0.2-0.5-0.2-0.7c0-0.6,0.6-1.1,1.2-1.1c0.3,0,0.6,0.2,0.9,0.5c0.5,0.6,1.3,0.8,2,0.8c1.6,0,2.4-1,2.4-1.8
				c0-2.8-6.4-1.8-6.4-6.3c0-2.5,2.2-3.7,4.2-3.7c1.4,0,3.1,0.8,3.9,2c0.1,0.2,0.2,0.4,0.2,0.6c0,0.6-0.6,1.1-1.2,1.1
				c-0.3,0-0.6-0.2-0.9-0.5c-0.5-0.6-1.1-1-1.9-1c-1.2,0-1.9,0.7-1.9,1.5c0,2.4,6.4,1.6,6.4,6.3C59.6,48.1,57.3,49.6,54.9,49.6z
				 M69.5,40.5c0-1.5-1.2-2.6-2.6-2.6c-1.5,0-2.6,1.2-2.6,2.6v4.2c0,1.5,1.2,2.6,2.6,2.6c1.5,0,2.6-1.2,2.6-2.6V40.5z M71.8,44.7
				c0,2.7-2.2,4.9-4.9,4.9c-2.7,0-4.9-2.2-4.9-4.9v-4.2c0-2.7,2.2-4.9,4.9-4.9c2.7,0,4.9,2.2,4.9,4.9V44.7z M77.5,49.6
				c-0.1,0-0.3,0-0.5-0.1c0,0-0.2-0.1-0.5-0.3c-1.3-0.8-1.9-2.4-1.9-4V31.8c0-0.8,0.6-1.1,1.1-1.1c0.6,0,1.1,0.4,1.1,1.1v13.5
				c0,0.8,0.2,1.6,0.9,2.1c0.5,0.2,0.7,0.6,0.7,1C78.6,49,78.1,49.6,77.5,49.6z M90.2,44.7c0,2.7-2.2,4.9-4.9,4.9
				c-2.7,0-4.9-2.2-4.9-4.9v-7.8c0-0.8,0.6-1.1,1.1-1.1c0.6,0,1.1,0.4,1.1,1.1v7.8c0,1.5,1.2,2.6,2.6,2.6c1.5,0,2.6-1.2,2.6-2.6
				v-7.8c0-0.8,0.6-1.1,1.1-1.1c0.6,0,1.1,0.4,1.1,1.1V44.7z M101.2,48.7c-0.8,0.6-1.7,0.9-2.7,0.9c-2.2,0-3.9-1.6-3.9-3.7v-7.9H93
				c-0.8,0-1.1-0.6-1.1-1.1c0-0.6,0.4-1.1,1.1-1.1h1.6v-2.4c0-0.8,0.6-1.1,1.1-1.1c0.6,0,1.1,0.4,1.1,1.1v2.4h3.6
				c0.8,0,1.1,0.6,1.1,1.1c0,0.6-0.4,1.1-1.1,1.1h-3.6v7.9c0,0.7,0.5,1.4,1.6,1.4c1.1,0,1.5-0.8,2.2-0.8c0.8,0,1.2,0.6,1.2,1.3
				C101.9,48.2,101.6,48.4,101.2,48.7z M103.9,36.9c0-0.8,0.6-1.1,1.1-1.1c0.6,0,1.1,0.4,1.1,1.1v11.3c0,0.8-0.6,1.1-1.1,1.1
				c-0.6,0-1.1-0.4-1.1-1.1V36.9z M105,30.6c0.8,0,1.5,0.7,1.5,1.5c0,0.8-0.7,1.5-1.5,1.5c-0.8,0-1.5-0.7-1.5-1.5
				C103.5,31.3,104.2,30.6,105,30.6z M116.7,40.5c0-1.5-1.2-2.6-2.6-2.6c-1.5,0-2.6,1.2-2.6,2.6v4.2c0,1.5,1.2,2.6,2.6,2.6
				c1.5,0,2.6-1.2,2.6-2.6V40.5z M119,44.7c0,2.7-2.2,4.9-4.9,4.9c-2.7,0-4.9-2.2-4.9-4.9v-4.2c0-2.7,2.2-4.9,4.9-4.9
				c2.7,0,4.9,2.2,4.9,4.9V44.7z M131.7,48.2c0,0.8-0.6,1.1-1.1,1.1c-0.6,0-1.1-0.4-1.1-1.1v-7.8c0-1.5-1.2-2.6-2.6-2.6
				c-1.5,0-2.6,1.2-2.6,2.6v7.8c0,0.8-0.6,1.1-1.1,1.1c-0.6,0-1.1-0.4-1.1-1.1v-7.8c0-2.7,2.2-4.9,4.9-4.9c2.7,0,4.9,2.2,4.9,4.9
				V48.2z M138.3,49.6c-1.3,0-3.1-0.6-3.9-1.8c-0.2-0.2-0.2-0.5-0.2-0.7c0-0.6,0.6-1.1,1.2-1.1c0.3,0,0.6,0.2,0.9,0.5
				c0.5,0.6,1.3,0.8,2,0.8c1.6,0,2.4-1,2.4-1.8c0-2.8-6.4-1.8-6.4-6.3c0-2.5,2.2-3.7,4.2-3.7c1.4,0,3.1,0.8,3.9,2
				c0.1,0.2,0.2,0.4,0.2,0.6c0,0.6-0.6,1.1-1.2,1.1c-0.3,0-0.6-0.2-0.9-0.5c-0.5-0.6-1.1-1-1.9-1c-1.2,0-1.9,0.7-1.9,1.5
				c0,2.4,6.4,1.6,6.4,6.3C143,48.1,140.7,49.6,138.3,49.6z"/>
		</g>
	</g>
</g>
</svg>
