<?xml version="1.0" encoding="UTF-8"?>
<svg width="44px" height="51px" viewBox="0 0 44 51" version="1.1" xmlns="http://www.w3.org/2000/svg" xmlns:xlink="http://www.w3.org/1999/xlink">
    <!-- Generator: Sketch 62 (91390) - https://sketch.com -->
    <title>Fill 1</title>
    <desc>Created with Sketch.</desc>
    <g id="Page-1" stroke="none" stroke-width="1" fill="none" fill-rule="evenodd">
        <g id="Event-Homepage" transform="translate(-698.000000, -5147.000000)" fill="#FFFFFF">
            <path d="M702.304713,5196.98661 C702.990993,5196.72716 720.649608,5190.04943 720.649608,5190.04943 C722.382351,5189.39645 722.875822,5187.1673 721.58822,5185.82905 L721.494952,5185.73494 C720.77713,5184.98887 719.684543,5184.74821 718.722868,5185.12381 L710.916028,5188.56566 C708.803771,5189.39064 706.743235,5187.2556 707.622324,5185.15233 L717.645034,5160.82515 C718.527006,5158.72324 721.482742,5158.71914 722.370481,5160.81866 L737.06929,5195.58449 C737.472376,5196.53808 738.40183,5197.15673 739.430657,5197.15673 C741.280748,5197.15673 742.523072,5195.24493 741.782697,5193.53707 L722.351997,5148.72219 C721.45578,5146.65479 718.544303,5146.65479 717.647917,5148.72219 L698.217386,5193.53707 C697.476841,5195.24493 698.719166,5197.15673 700.569257,5197.15673 C700.569257,5197.15673 701.618433,5197.24623 702.304713,5196.98661" id="Fill-1"></path>
        </g>
    </g>
</svg>